<svg width="45" height="45" viewBox="0 0 45 45" fill="none" xmlns="http://www.w3.org/2000/svg"><path d="M28.125 7.5C32.1032 7.5 35.9185 9.08035 38.7316 11.8934C41.5446 14.7064 43.125 18.5217 43.125 22.5C43.125 26.4782 41.5446 30.2935 38.7316 33.1066C35.9185 35.9196 32.1032 37.5 28.125 37.5C24.1467 37.5 20.3314 35.9196 17.5184 33.1066C14.7053 30.2935 13.125 26.4782 13.125 22.5C13.125 18.5217 14.7053 14.7064 17.5184 11.8934C20.3314 9.08035 24.1467 7.5 28.125 7.5ZM28.125 11.25C25.1413 11.25 22.2798 12.4353 20.17 14.545C18.0603 16.6548 16.875 19.5163 16.875 22.5C16.875 25.4837 18.0603 28.3451 20.17 30.4549C22.2798 32.5647 25.1413 33.75 28.125 33.75C31.1087 33.75 33.9702 32.5647 36.0799 30.4549C38.1897 28.3451 39.375 25.4837 39.375 22.5C39.375 19.5163 38.1897 16.6548 36.0799 14.545C33.9702 12.4353 31.1087 11.25 28.125 11.25ZM26.25 15H29.0625V22.0875L33.4312 26.4562L31.4437 28.4437L26.25 23.25V15ZM3.75 33.75C3.25272 33.75 2.77581 33.5524 2.42417 33.2008C2.07254 32.8492 1.875 32.3723 1.875 31.875C1.875 31.3777 2.07254 30.9008 2.42417 30.5491C2.77581 30.1975 3.25272 30 3.75 30H10.9312C11.5125 31.3312 12.2625 32.5875 13.125 33.75H3.75ZM5.625 24.375C5.12772 24.375 4.6508 24.1774 4.29917 23.8258C3.94754 23.4742 3.75 22.9973 3.75 22.5C3.75 22.0027 3.94754 21.5258 4.29917 21.1742C4.6508 20.8225 5.12772 20.625 5.625 20.625H9.46875L9.375 22.5L9.46875 24.375H5.625ZM7.5 15C7.00272 15 6.5258 14.8024 6.17417 14.4508C5.82254 14.0992 5.625 13.6223 5.625 13.125C5.625 12.6277 5.82254 12.1508 6.17417 11.7992C6.5258 11.4475 7.00272 11.25 7.5 11.25H13.125C12.2625 12.4125 11.5125 13.6687 10.9312 15H7.5Z" fill="#8EC2F2"/></svg>