<svg width="30" height="30" viewBox="0 0 30 30" fill="none" xmlns="http://www.w3.org/2000/svg">
<path d="M27.5639 0.02948H2.43581C1.10718 0.02948 0.0292969 1.10736 0.0292969 2.436V27.5641C0.0292969 28.8927 1.10718 29.9706 2.43581 29.9706H27.5639C28.8925 29.9706 29.9704 28.8927 29.9704 27.5641V2.436C29.9704 1.10736 28.8925 0.02948 27.5639 0.02948ZM27.5639 27.5753C10.8044 27.5715 2.42458 27.5678 2.42458 27.5641C2.42833 10.8045 2.43207 2.42477 2.43581 2.42477C19.1953 2.42851 27.5751 2.43225 27.5751 2.436C27.5714 19.1955 27.5676 27.5753 27.5639 27.5753ZM4.46807 11.2536H8.91057V25.543H4.46807V11.2536ZM6.69119 9.29999C8.10965 9.29999 9.26613 8.14726 9.26613 6.72506C9.26613 6.38691 9.19952 6.05208 9.07012 5.73967C8.94072 5.42727 8.75105 5.14341 8.51195 4.9043C8.27284 4.6652 7.98898 4.47553 7.67658 4.34613C7.36417 4.21673 7.02934 4.15012 6.69119 4.15012C6.35305 4.15012 6.01821 4.21673 5.70581 4.34613C5.3934 4.47553 5.10954 4.6652 4.87044 4.9043C4.63133 5.14341 4.44166 5.42727 4.31226 5.73967C4.18286 6.05208 4.11626 6.38691 4.11626 6.72506C4.11251 8.14726 5.26525 9.29999 6.69119 9.29999ZM16.1339 18.4732C16.1339 16.6094 16.4894 14.8054 18.7986 14.8054C21.0741 14.8054 21.1078 16.935 21.1078 18.593V25.543H25.5466V17.706C25.5466 13.8585 24.7157 10.8981 20.2208 10.8981C18.0613 10.8981 16.6129 12.0845 16.0178 13.2073H15.958V11.2536H11.6951V25.543H16.1339V18.4732Z" fill="#BDBDBD"/>
</svg>
