<svg width="30" height="30" viewBox="0 0 30 30" fill="none" xmlns="http://www.w3.org/2000/svg">
<path d="M14.9998 7.30875C10.7435 7.30875 7.30854 10.7437 7.30854 15C7.30854 19.2562 10.7435 22.6912 14.9998 22.6912C19.256 22.6912 22.691 19.2562 22.691 15C22.691 10.7437 19.256 7.30875 14.9998 7.30875ZM14.9998 19.9987C12.2473 19.9987 10.001 17.7525 10.001 15C10.001 12.2475 12.2473 10.0012 14.9998 10.0012C17.7523 10.0012 19.9985 12.2475 19.9985 15C19.9985 17.7525 17.7523 19.9987 14.9998 19.9987ZM23.006 5.20125C22.0123 5.20125 21.2098 6.00375 21.2098 6.9975C21.2098 7.99125 22.0123 8.79375 23.006 8.79375C23.9998 8.79375 24.8023 7.995 24.8023 6.9975C24.8026 6.76153 24.7563 6.52782 24.6662 6.30975C24.576 6.09169 24.4437 5.89355 24.2768 5.7267C24.11 5.55984 23.9118 5.42754 23.6938 5.33738C23.4757 5.24721 23.242 5.20095 23.006 5.20125ZM29.9923 15C29.9923 12.93 30.011 10.8787 29.8948 8.8125C29.7785 6.4125 29.231 4.2825 27.476 2.5275C25.7173 0.768747 23.591 0.224997 21.191 0.108747C19.121 -0.0075028 17.0698 0.0112473 15.0035 0.0112473C12.9335 0.0112473 10.8823 -0.0075028 8.81604 0.108747C6.41604 0.224997 4.28604 0.772497 2.53104 2.5275C0.772287 4.28625 0.228537 6.4125 0.112287 8.8125C-0.00396276 10.8825 0.0147873 12.9337 0.0147873 15C0.0147873 17.0662 -0.00396276 19.1212 0.112287 21.1875C0.228537 23.5875 0.776037 25.7175 2.53104 27.4725C4.28979 29.2312 6.41604 29.775 8.81604 29.8912C10.886 30.0075 12.9373 29.9887 15.0035 29.9887C17.0735 29.9887 19.1248 30.0075 21.191 29.8912C23.591 29.775 25.721 29.2275 27.476 27.4725C29.2348 25.7137 29.7785 23.5875 29.8948 21.1875C30.0148 19.1212 29.9923 17.07 29.9923 15ZM26.6923 23.8425C26.4185 24.525 26.0885 25.035 25.5598 25.56C25.031 26.0887 24.5248 26.4187 23.8423 26.6925C21.8698 27.4762 17.186 27.3 14.9998 27.3C12.8135 27.3 8.12604 27.4762 6.15354 26.6962C5.47104 26.4225 4.96104 26.0925 4.43604 25.5637C3.90729 25.035 3.57729 24.5287 3.30354 23.8462C2.52354 21.87 2.69979 17.1862 2.69979 15C2.69979 12.8137 2.52354 8.12625 3.30354 6.15375C3.57729 5.47125 3.90729 4.96125 4.43604 4.43625C4.96479 3.91125 5.47104 3.5775 6.15354 3.30375C8.12604 2.52375 12.8135 2.7 14.9998 2.7C17.186 2.7 21.8735 2.52375 23.846 3.30375C24.5285 3.5775 25.0385 3.9075 25.5635 4.43625C26.0923 4.965 26.4223 5.47125 26.696 6.15375C27.476 8.12625 27.2998 12.8137 27.2998 15C27.2998 17.1862 27.476 21.87 26.6923 23.8425Z" fill="#BDBDBD"/>
</svg>
