<svg width="37" height="30" viewBox="0 0 37 30" fill="none" xmlns="http://www.w3.org/2000/svg"><g clip-path="url(#clip0_746_3042)"><path d="M36.9675 3.56363C35.6095 4.14942 34.1317 4.57102 32.6095 4.73522C34.1899 3.79633 35.3733 2.31303 35.9379 0.563627C34.4549 1.44583 32.8303 2.06444 31.1361 2.39203C30.428 1.63505 29.5716 1.032 28.6203 0.620465C27.669 0.208931 26.6431 -0.00227123 25.6066 1.84189e-05C21.4128 1.84189e-05 18.04 3.39942 18.04 7.57102C18.04 8.15682 18.111 8.74262 18.2264 9.30623C11.9468 8.97782 6.34624 5.97783 2.62287 1.38463C1.94444 2.54343 1.58891 3.86285 1.59329 5.20564C1.59329 7.83285 2.92909 10.1494 4.96606 11.5118C3.76564 11.4646 2.59333 11.1346 1.54447 10.5488V10.642C1.54447 14.321 4.14506 17.3698 7.61103 18.071C6.96026 18.2401 6.2908 18.3265 5.61843 18.3284C5.12583 18.3284 4.65985 18.2796 4.18944 18.213C5.14802 21.213 7.93943 23.392 11.2634 23.463C8.6628 25.5 5.40541 26.6982 1.86844 26.6982C1.23382 26.6982 0.648026 26.676 0.0400391 26.605C3.39506 28.7574 7.37582 30 11.6628 30C25.5799 30 33.1953 18.4704 33.1953 8.46303C33.1953 8.13463 33.1953 7.80623 33.1731 7.47782C34.6465 6.39942 35.9379 5.06362 36.9675 3.56363Z" fill="#BDBDBD"/></g><defs><clipPath id="clip0_746_3042"><rect width="36.9674" height="30" fill="white"/></clipPath></defs></svg>