<svg width="143" height="143" viewBox="0 0 143 143" fill="none" xmlns="http://www.w3.org/2000/svg">
<g filter="url(#filter0_d_1430_56)">
<circle cx="71.5" cy="61.5" r="51.5" fill="white"/>
</g>
<g clip-path="url(#clip0_1430_56)">
<path d="M87.4048 56.4409L71.9361 49.2222C71.6601 49.0933 71.3399 49.0933 71.064 49.2222L55.5952 56.4409C55.2316 56.6101 55 56.9746 55 57.3755V67.688H57.0625V58.9947L59.1249 59.9572V69.7504C59.1249 70.2157 59.4361 70.6225 59.8853 70.7454L71.2291 73.8392C71.3177 73.8634 71.4083 73.8754 71.5 73.8754C71.5916 73.8754 71.6822 73.8634 71.7709 73.8392L83.1147 70.7454C83.5638 70.6226 83.875 70.2157 83.875 69.7504V59.9572L87.4048 58.31C87.7684 58.1409 88 57.7763 88 57.3755C88 56.9746 87.7684 56.6101 87.4048 56.4409ZM81.8125 68.963L71.5 71.7747L61.1875 68.963V60.9198L71.0639 65.5288C71.2019 65.5932 71.3509 65.6255 71.5 65.6255C71.649 65.6255 71.798 65.5933 71.936 65.5288L81.8124 60.9198C81.8125 60.9197 81.8125 68.963 81.8125 68.963ZM71.5 63.4562L58.4694 57.3755L71.5 51.2947L84.5306 57.3755L71.5 63.4562Z" fill="#969CBA"/>
</g>
<defs>
<filter id="filter0_d_1430_56" x="0" y="0" width="143" height="143" filterUnits="userSpaceOnUse" color-interpolation-filters="sRGB">
<feFlood flood-opacity="0" result="BackgroundImageFix"/>
<feColorMatrix in="SourceAlpha" type="matrix" values="0 0 0 0 0 0 0 0 0 0 0 0 0 0 0 0 0 0 127 0" result="hardAlpha"/>
<feOffset dy="10"/>
<feGaussianBlur stdDeviation="10"/>
<feColorMatrix type="matrix" values="0 0 0 0 0 0 0 0 0 0 0 0 0 0 0 0 0 0 0.05 0"/>
<feBlend mode="normal" in2="BackgroundImageFix" result="effect1_dropShadow_1430_56"/>
<feBlend mode="normal" in="SourceGraphic" in2="effect1_dropShadow_1430_56" result="shape"/>
</filter>
<clipPath id="clip0_1430_56">
<rect width="33" height="33" fill="white" transform="translate(55 45)"/>
</clipPath>
</defs>
</svg>
