<svg width="85" height="85" viewBox="0 0 85 85" fill="none" xmlns="http://www.w3.org/2000/svg">
<path d="M42.2638 40.8472C48.6388 40.8472 53.5971 35.6527 53.5971 29.2777C53.5971 22.9027 48.4027 17.9444 42.0277 17.9444C35.6527 17.9444 30.6943 23.1388 30.6943 29.2777C30.6943 35.6527 35.8888 40.8472 42.2638 40.8472ZM42.0277 22.6666C42.2638 22.6666 42.2638 22.6666 42.0277 22.6666C45.8054 22.6666 48.8749 25.7361 48.8749 29.5138C48.8749 33.2916 45.8054 36.125 42.0277 36.125C38.2499 36.125 35.4166 33.0555 35.4166 29.5138C35.4166 25.7361 38.486 22.6666 42.0277 22.6666Z" fill="white"/>
<path d="M77.2087 39.4306C72.7225 35.4167 66.8198 33.2917 60.6809 33.5278H58.792C58.3198 35.4167 57.6114 37.0695 56.667 38.4861C58.0837 38.25 59.2642 38.25 60.6809 38.25C65.167 38.0139 69.6531 39.4306 73.1948 42.0278V59.0278H77.917V40.1389L77.2087 39.4306Z" fill="white"/>
<path d="M55.2499 18.4167C56.4304 15.5834 59.736 14.1667 62.8055 15.3473C65.6388 16.5278 67.0555 19.8334 65.8749 22.9028C64.9305 25.0278 62.8055 26.4445 60.6805 26.4445C60.2082 26.4445 59.4999 26.4445 59.0277 26.2084C59.2638 27.3889 59.2638 28.5695 59.2638 29.5139V30.9306C59.736 30.9306 60.2082 31.1667 60.6805 31.1667C66.5832 31.1667 71.3055 26.4445 71.3055 20.7778C71.3055 14.8751 66.5832 10.1528 60.9166 10.1528C57.1388 10.1528 53.8332 12.0417 51.9443 15.3473C53.1249 16.0556 54.3054 17.0001 55.2499 18.4167Z" fill="white"/>
<path d="M28.333 38.7223C27.3886 37.3056 26.6802 35.6528 26.208 33.7639H24.3191C18.1802 33.5278 12.2775 35.6528 7.79134 39.4306L7.08301 40.1389V59.0278H11.8052V42.0278C15.583 39.4306 19.833 38.0139 24.3191 38.25C25.7358 38.25 27.1525 38.4861 28.333 38.7223Z" fill="white"/>
<path d="M24.319 30.9306C24.7912 30.9306 25.2635 30.9306 25.7357 30.6945V29.2778C25.7357 28.0973 25.7357 26.9167 25.9718 25.9723C25.4996 26.2084 24.7912 26.2084 24.319 26.2084C21.2496 26.2084 18.6523 23.6112 18.6523 20.5417C18.6523 17.4723 21.2496 14.8751 24.319 14.8751C26.6801 14.8751 28.8051 16.2917 29.7496 18.4167C30.694 17.2362 32.1107 16.0556 33.2912 15.1112C30.2218 10.1528 23.8468 8.50006 18.8885 11.5695C13.9301 14.6389 12.2773 21.0139 15.3468 25.9723C17.2357 29.0417 20.5412 30.9306 24.319 30.9306Z" fill="white"/>
<path d="M61.6252 53.5972L61.153 52.8889C56.4308 47.6945 49.8197 44.625 42.7363 44.8611C35.653 44.625 28.8058 47.6945 24.0835 52.8889L23.6113 53.5972V71.5417C23.6113 73.6667 25.2641 75.5556 27.6252 75.5556H57.8474C59.9724 75.5556 61.8613 73.6667 61.8613 71.5417V53.5972H61.6252ZM56.903 70.8333H28.3335V55.25C32.1113 51.4722 37.3058 49.5833 42.7363 49.5833C47.9308 49.3472 53.1252 51.4722 56.903 55.25V70.8333Z" fill="white"/>
</svg>
