<svg width="68" height="43" viewBox="0 0 68 43" fill="none" xmlns="http://www.w3.org/2000/svg">
<path fill-rule="evenodd" clip-rule="evenodd" d="M42.4478 8.5C41.3206 8.5 40.2396 8.05223 39.4426 7.2552C38.6455 6.45817 38.1978 5.37717 38.1978 4.25C38.1978 3.12283 38.6455 2.04183 39.4426 1.2448C40.2396 0.447767 41.3206 0 42.4478 0H63.6978C64.8249 0 65.906 0.447767 66.703 1.2448C67.5 2.04183 67.9478 3.12283 67.9478 4.25V25.5C67.9478 26.6272 67.5 27.7082 66.703 28.5052C65.906 29.3022 64.8249 29.75 63.6978 29.75C62.5706 29.75 61.4896 29.3022 60.6926 28.5052C59.8955 27.7082 59.4478 26.6272 59.4478 25.5V14.5095L41.2025 32.7547C40.4055 33.5515 39.3247 33.9991 38.1978 33.9991C37.0708 33.9991 35.99 33.5515 35.193 32.7547L25.4478 23.0095L7.20253 41.2547C6.40097 42.0289 5.32741 42.4573 4.21307 42.4476C3.09873 42.4379 2.03278 41.991 1.2448 41.203C0.456812 40.415 0.00984394 39.349 0.000160661 38.2347C-0.00952262 37.1204 0.418853 36.0468 1.19302 35.2453L22.443 13.9953C23.24 13.1985 24.3208 12.7509 25.4478 12.7509C26.5747 12.7509 27.6555 13.1985 28.4525 13.9953L38.1978 23.7405L53.4383 8.5H42.4478Z" fill="white"/>
</svg>
