<svg width="85" height="85" viewBox="0 0 85 85" fill="none" xmlns="http://www.w3.org/2000/svg">
<path d="M42.4997 7.08333C22.9709 7.08333 7.08301 22.9713 7.08301 42.5C7.08301 62.0288 22.9709 77.9167 42.4997 77.9167C62.0284 77.9167 77.9163 62.0288 77.9163 42.5C77.9163 22.9713 62.0284 7.08333 42.4997 7.08333ZM14.1663 42.5C14.1663 39.316 14.7188 36.2596 15.6928 33.4015L21.2497 38.9583L28.333 46.0417V53.125L35.4163 60.2083L38.958 63.75V70.589C25.0074 68.8358 14.1663 56.9217 14.1663 42.5ZM64.9184 59.7585C62.6057 57.8956 59.0995 56.6667 56.6663 56.6667V53.125C56.6663 51.2464 55.9201 49.4447 54.5917 48.1163C53.2633 46.7879 51.4616 46.0417 49.583 46.0417H35.4163V35.4167C37.295 35.4167 39.0966 34.6704 40.425 33.342C41.7534 32.0136 42.4997 30.212 42.4997 28.3333V24.7917H46.0413C47.92 24.7917 49.7216 24.0454 51.05 22.717C52.3784 21.3886 53.1247 19.587 53.1247 17.7083V16.2527C63.4947 20.4638 70.833 30.6354 70.833 42.5C70.8324 48.75 68.7515 54.822 64.9184 59.7585Z" fill="white"/>
</svg>
